<?xml version="1.0" encoding="utf-8" standalone="no"?>
<!DOCTYPE svg PUBLIC "-//W3C//DTD SVG 1.1//EN"
  "http://www.w3.org/Graphics/SVG/1.1/DTD/svg11.dtd">
<svg xmlns:xlink="http://www.w3.org/1999/xlink" width="648pt" height="403.2pt" viewBox="0 0 648 403.2" xmlns="http://www.w3.org/2000/svg" version="1.1">
 <metadata>
  <rdf:RDF xmlns:dc="http://purl.org/dc/elements/1.1/" xmlns:cc="http://creativecommons.org/ns#" xmlns:rdf="http://www.w3.org/1999/02/22-rdf-syntax-ns#">
   <cc:Work>
    <dc:type rdf:resource="http://purl.org/dc/dcmitype/StillImage"/>
    <dc:date>2026-10-08T15:35:30.151837</dc:date>
    <dc:format>image/svg+xml</dc:format>
    <dc:creator>
     <cc:Agent>
      <dc:title>Matplotlib v3.11.2, https://matplotlib.org/</dc:title>
     </cc:Agent>
    </dc:creator>
   </cc:Work>
  </rdf:RDF>
 </metadata>
 <defs>
  <style type="text/css">*{stroke-linejoin: round; stroke-linecap: butt}</style>
 </defs>
 <g id="figure_1">
  <g id="patch_1">
   <path d="M 0 403.2 
L 648 403.2 
L 648 0 
L 0 0 
z
" style="fill: #ffffff"/>
  </g>
  <g id="axes_1">
   <g id="line2d_1">
    <path d="M 349.337214 209.972059 
L 349.160461 204.375835 
L 348.630908 198.801921 
L 347.750664 193.272533 
L 346.523239 187.809715 
L 344.953527 182.435242 
L 343.047783 177.170539 
L 340.813606 172.036593 
L 338.2599 167.053868 
L 335.396847 162.242228 
L 332.235858 157.620854 
L 328.789535 153.208166 
L 325.071615 149.021756 
L 321.09692 145.078312 
L 316.881294 141.393553 
L 312.44154 137.982168 
L 307.795359 134.857756 
L 302.961269 132.032772 
L 297.958543 129.518476 
L 292.807121 127.324893 
L 287.52754 125.460765 
L 282.140844 123.933523 
L 276.668508 122.749257 
L 271.132344 121.912686 
L 265.554423 121.427146 
L 259.956979 121.294572 
L 254.362325 121.515492 
L 248.792764 122.089026 
L 243.270497 123.012888 
L 237.817537 124.283394 
L 232.455622 125.895481 
L 227.206126 127.842721 
L 222.089975 130.117354 
L 217.127563 132.71031 
L 212.338672 135.611254 
L 207.742392 138.808623 
L 203.357045 142.289669 
L 199.200112 146.040518 
L 195.288165 150.046216 
L 191.636796 154.290797 
L 188.260562 158.757339 
L 185.172922 163.428038 
L 182.386183 168.284275 
L 179.911454 173.306692 
L 177.7586 178.475268 
L 175.936204 183.769399 
L 174.45153 189.167982 
L 173.310496 194.649496 
L 172.51765 200.19209 
L 172.076153 205.77367 
L 171.987766 211.371986 
L 172.25284 216.964722 
L 172.870319 222.529583 
L 173.837741 228.044385 
L 175.15125 233.487147 
L 176.80561 238.83617 
L 178.794226 244.070132 
L 181.109171 249.168169 
L 183.741217 254.109959 
L 186.679871 258.875803 
L 189.91342 263.446702 
L 193.428973 267.804435 
L 197.212517 271.931632 
L 201.248969 275.811839 
L 205.522239 279.42959 
L 210.015292 282.770462 
L 214.710217 285.821139 
L 219.5883 288.569459 
L 224.630095 291.004467 
L 229.815503 293.116456 
L 235.123854 294.897007 
L 240.533988 296.339022 
L 246.024337 297.436753 
L 251.573017 298.185825 
L 257.157908 298.58325 
L 262.756748 298.627445 
L 268.347217 298.318234 
L 273.90703 297.656849 
L 279.414025 296.645926 
L 284.846248 295.289496 
L 290.182046 293.592966 
L 295.400148 291.563099 
L 300.479754 289.207985 
L 305.400615 286.537014 
L 310.143114 283.560833 
L 314.688347 280.291305 
L 319.018195 276.741464 
L 323.115398 272.92546 
L 326.963623 268.858506 
L 330.547531 264.556813 
L 333.852834 260.037529 
L 336.866357 255.31867 
L 339.576087 250.419046 
L 341.971222 245.358188 
L 344.042215 240.156271 
L 345.78081 234.83403 
L 347.180076 229.412683 
L 348.234435 223.913839 
L 348.939686 218.35942 
L 349.293015 212.771565 
L 349.337214 209.972059 
L 349.337214 209.972059 
" clip-path="url(#p04f4d61935)" style="fill: none; stroke: #2f855a; stroke-width: 1.8; stroke-linecap: square"/>
   </g>
   <g id="line2d_2">
    <path d="M 476.023285 209.972059 
L 475.947514 205.172904 
L 475.72028 200.378533 
L 475.341807 195.593726 
L 474.812474 190.823251 
L 474.132807 186.071863 
L 473.303485 181.344301 
L 472.325333 176.645274 
L 471.199328 171.979469 
L 469.926591 167.351536 
L 468.508392 162.766087 
L 466.946143 158.227695 
L 465.241403 153.740883 
L 463.39587 149.310123 
L 461.411384 144.939832 
L 459.289924 140.634366 
L 457.033603 136.398018 
L 454.644672 132.23501 
L 452.125512 128.149493 
L 449.478633 124.145537 
L 446.706674 120.227136 
L 443.812399 116.398194 
L 440.798692 112.662528 
L 437.668557 109.023863 
L 434.425115 105.485825 
L 431.071599 102.051942 
L 427.611352 98.725635 
L 424.047823 95.510221 
L 420.384564 92.408906 
L 416.625226 89.42478 
L 412.773558 86.560818 
L 408.833399 83.819875 
L 404.808675 81.204683 
L 400.7034 78.717849 
L 396.521665 76.361853 
L 392.267639 74.139042 
L 387.945562 72.051632 
L 383.559743 70.101704 
L 379.114554 68.291203 
L 374.614425 66.621931 
L 370.063843 65.095555 
L 365.467343 63.713594 
L 360.829507 62.477427 
L 356.15496 61.388286 
L 351.448359 60.447256 
L 346.714397 59.655276 
L 341.957793 59.013135 
L 337.183289 58.521473 
L 332.395643 58.18078 
L 327.599628 57.991396 
L 322.800024 57.95351 
L 318.001617 58.067159 
L 313.20919 58.332231 
L 308.427518 58.74846 
L 303.66137 59.315432 
L 298.915496 60.032582 
L 294.194627 60.899195 
L 289.503468 61.914407 
L 284.846696 63.077206 
L 280.228953 64.386433 
L 275.654842 65.840783 
L 271.128922 67.438806 
L 266.655706 69.178909 
L 262.239651 71.059358 
L 257.885161 73.078278 
L 253.596575 75.233657 
L 249.378169 77.523347 
L 245.234147 79.945063 
L 241.168641 82.496394 
L 237.185704 85.174795 
L 233.289304 87.977597 
L 229.483327 90.902005 
L 225.771566 93.945105 
L 222.157722 97.103864 
L 218.645396 100.375132 
L 215.23809 103.755648 
L 211.9392 107.242043 
L 208.752015 110.830842 
L 205.679711 114.518467 
L 202.725352 118.301242 
L 199.891881 122.175396 
L 197.182125 126.137068 
L 194.598783 130.182309 
L 192.144432 134.307086 
L 189.821516 138.507287 
L 187.632353 142.778726 
L 185.579124 147.117145 
L 183.663876 151.518219 
L 181.888518 155.977561 
L 180.25482 160.490725 
L 178.76441 165.053214 
L 177.418775 169.660479 
L 176.219254 174.307928 
L 175.167045 178.990927 
L 174.263196 183.704809 
L 173.508607 188.444874 
L 172.904032 193.206399 
L 172.450072 197.984636 
L 172.14718 202.774822 
L 171.995659 207.572182 
L 171.995659 212.371935 
L 172.14718 217.169295 
L 172.450072 221.959482 
L 172.904032 226.737718 
L 173.508607 231.499243 
L 174.263196 236.239308 
L 175.167045 240.95319 
L 176.219254 245.636189 
L 177.418775 250.283638 
L 178.76441 254.890903 
L 180.25482 259.453392 
L 181.888518 263.966557 
L 183.663876 268.425899 
L 185.579124 272.826972 
L 187.632353 277.165391 
L 189.821516 281.43683 
L 192.144432 285.637031 
L 194.598783 289.761808 
L 197.182125 293.807049 
L 199.891881 297.768721 
L 202.725352 301.642876 
L 205.679711 305.425651 
L 208.752015 309.113275 
L 211.9392 312.702074 
L 215.23809 316.188469 
L 218.645396 319.568986 
L 222.157722 322.840253 
L 225.771566 325.999012 
L 229.483327 329.042112 
L 233.289304 331.96652 
L 237.185704 334.769322 
L 241.168641 337.447723 
L 245.234147 339.999054 
L 249.378169 342.420771 
L 253.596575 344.71046 
L 257.885161 346.865839 
L 262.239651 348.884759 
L 266.655706 350.765208 
L 271.128922 352.505311 
L 275.654842 354.103335 
L 280.228953 355.557684 
L 284.846696 356.866911 
L 289.503468 358.029711 
L 294.194627 359.044922 
L 298.915496 359.911535 
L 303.66137 360.628685 
L 308.427518 361.195657 
L 313.20919 361.611887 
L 318.001617 361.876958 
L 322.800024 361.990607 
L 327.599628 361.952721 
L 332.395643 361.763337 
L 337.183289 361.422644 
L 341.957793 360.930982 
L 346.714397 360.288841 
L 351.448359 359.496861 
L 356.15496 358.555832 
L 360.829507 357.46669 
L 365.467343 356.230523 
L 370.063843 354.848563 
L 374.614425 353.322186 
L 379.114554 351.652915 
L 383.559743 349.842413 
L 387.945562 347.892485 
L 392.267639 345.805075 
L 396.521665 343.582264 
L 400.7034 341.226268 
L 404.808675 338.739434 
L 408.833399 336.124243 
L 412.773558 333.3833 
L 416.625226 330.519338 
L 420.384564 327.535211 
L 424.047823 324.433896 
L 427.611352 321.218482 
L 431.071599 317.892175 
L 434.425115 314.458292 
L 437.668557 310.920254 
L 440.798692 307.281589 
L 443.812399 303.545923 
L 446.706674 299.716981 
L 449.478633 295.79858 
L 452.125512 291.794625 
L 454.644672 287.709107 
L 457.033603 283.546099 
L 459.289924 279.309751 
L 461.411384 275.004285 
L 463.39587 270.633995 
L 465.241403 266.203235 
L 466.946143 261.716422 
L 468.508392 257.17803 
L 469.926591 252.592581 
L 471.199328 247.964648 
L 472.325333 243.298843 
L 473.303485 238.599817 
L 474.132807 233.872254 
L 474.812474 229.120867 
L 475.341807 224.350392 
L 475.72028 219.565584 
L 475.947514 214.771213 
L 476.023285 209.972059 
L 476.023285 209.972059 
" clip-path="url(#p04f4d61935)" style="fill: none; stroke: #2b6cb0; stroke-width: 1.8; stroke-linecap: square"/>
   </g>
   <g id="line2d_3">
    <path d="M 476.023285 209.972059 
L 475.897033 205.974756 
L 475.51878 201.993389 
L 474.890035 198.043826 
L 474.013303 194.141813 
L 472.892079 190.302904 
L 471.530834 186.542402 
L 469.934993 182.875297 
L 468.110917 179.316208 
L 466.065879 175.879323 
L 463.80803 172.578341 
L 461.346371 169.426421 
L 458.690714 166.436128 
L 455.851646 163.619382 
L 452.840484 160.987412 
L 449.669232 158.550708 
L 446.350531 156.318985 
L 442.89761 154.301139 
L 439.324234 152.505214 
L 435.644647 150.938369 
L 431.873517 149.606849 
L 428.025877 148.515962 
L 424.117066 147.670057 
L 420.162663 147.072507 
L 416.178434 146.725693 
L 412.180259 146.630997 
L 408.184078 146.788797 
L 404.20582 147.198464 
L 400.261344 147.858365 
L 396.366373 148.76587 
L 392.536433 149.91736 
L 388.786793 151.308246 
L 385.1324 152.932984 
L 381.58782 154.785095 
L 378.167183 156.857198 
L 374.884126 159.141033 
L 371.751735 161.627495 
L 368.782498 164.306672 
L 365.988249 167.167885 
L 363.380129 170.199729 
L 360.968533 173.390116 
L 358.763076 176.72633 
L 356.772548 180.19507 
L 355.004884 183.782511 
L 353.467132 187.474351 
L 352.16542 191.255873 
L 351.104939 195.112004 
L 350.289914 199.027371 
L 349.723596 202.986367 
L 349.408241 206.97321 
L 349.345107 210.972007 
L 349.534446 214.966818 
L 349.975502 218.941719 
L 350.666518 222.880863 
L 351.604739 226.76855 
L 352.786424 230.589281 
L 354.206864 234.327825 
L 355.860396 237.96928 
L 357.740429 241.499131 
L 359.839468 244.903305 
L 362.149146 248.168232 
L 364.660255 251.280899 
L 367.362787 254.228896 
L 370.245967 257.000473 
L 373.298302 259.584581 
L 376.507626 261.970918 
L 379.861144 264.149973 
L 383.345489 266.113059 
L 386.946771 267.85235 
L 390.650634 269.360914 
L 394.442313 270.632736 
L 398.306694 271.662747 
L 402.228373 272.446841 
L 406.191715 272.981891 
L 410.180923 273.265767 
L 414.180094 273.297335 
L 418.173286 273.076469 
L 422.144581 272.604051 
L 426.078149 271.881964 
L 429.958309 270.913086 
L 433.769593 269.701278 
L 437.496809 268.251373 
L 441.125099 266.569149 
L 444.639999 264.661312 
L 448.027499 262.535469 
L 451.274094 260.200091 
L 454.366842 257.664491 
L 457.293416 254.938774 
L 460.042148 252.033807 
L 462.602082 248.961169 
L 464.963013 245.733109 
L 467.115529 242.362495 
L 469.051051 238.862764 
L 470.761862 235.247865 
L 472.241142 231.53221 
L 473.482996 227.73061 
L 474.482471 223.858219 
L 475.235585 219.930473 
L 475.739336 215.963031 
L 475.991714 211.971706 
L 476.023285 209.972059 
L 476.023285 209.972059 
" clip-path="url(#p04f4d61935)" style="fill: none; stroke: #c05621; stroke-width: 1.8; stroke-linecap: square"/>
   </g>
   <g id="line2d_4">
    <defs>
     <path id="mcae933eb20" d="M 0 3 
C 0.795609 3 1.55874 2.683901 2.12132 2.12132 
C 2.683901 1.55874 3 0.795609 3 0 
C 3 -0.795609 2.683901 -1.55874 2.12132 -2.12132 
C 1.55874 -2.683901 0.795609 -3 0 -3 
C -0.795609 -3 -1.55874 -2.683901 -2.12132 -2.12132 
C -2.683901 -1.55874 -3 -0.795609 -3 0 
C -3 0.795609 -2.683901 1.55874 -2.12132 2.12132 
C -1.55874 2.683901 -0.795609 3 0 3 
z
" style="stroke: #c0392b"/>
    </defs>
    <g clip-path="url(#p04f4d61935)">
     <use xlink:href="#mcae933eb20" x="171.976715" y="209.972059" style="fill: #c0392b; stroke: #c0392b"/>
    </g>
   </g>
   <g id="line2d_5">
    <g clip-path="url(#p04f4d61935)">
     <use xlink:href="#mcae933eb20" x="349.337214" y="209.972059" style="fill: #c0392b; stroke: #c0392b"/>
    </g>
   </g>
   <g id="line2d_6">
    <g clip-path="url(#p04f4d61935)">
     <use xlink:href="#mcae933eb20" x="476.023285" y="209.972059" style="fill: #c0392b; stroke: #c0392b"/>
    </g>
   </g>
   <g id="line2d_7">
    <defs>
     <path id="m8770d5cc4c" d="M 0 3 
C 0.795609 3 1.55874 2.683901 2.12132 2.12132 
C 2.683901 1.55874 3 0.795609 3 0 
C 3 -0.795609 2.683901 -1.55874 2.12132 -2.12132 
C 1.55874 -2.683901 0.795609 -3 0 -3 
C -0.795609 -3 -1.55874 -2.683901 -2.12132 -2.12132 
C -2.683901 -1.55874 -3 -0.795609 -3 0 
C -3 0.795609 -2.683901 1.55874 -2.12132 2.12132 
C -1.55874 2.683901 -0.795609 3 0 3 
z
" style="stroke: #2b6cb0"/>
    </defs>
    <g clip-path="url(#p04f4d61935)">
     <use xlink:href="#m8770d5cc4c" x="324" y="57.948774" style="fill: #2b6cb0; stroke: #2b6cb0"/>
    </g>
   </g>
   <g id="patch_2">
    <path d="M 118.235269 209.972059 
Q 324.00166 209.972059 528.426411 209.972059 
" style="fill: none; stroke: #718096; stroke-width: 1.2; stroke-linecap: round"/>
    <path d="M 524.426411 207.972059 
L 528.426411 209.972059 
L 524.426411 211.972059 
z
" style="fill: #718096; stroke: #718096; stroke-width: 1.2; stroke-linecap: round"/>
   </g>
   <g id="text_1">
    <!-- $\sigma$ -->
    <g style="fill: #718096" transform="translate(526.697713 232.775551) scale(0.11 -0.11)">
     <defs>
      <path id="DejaVuSans-Oblique-357" d="M 2219 3044 
Q 1744 3044 1422 2700 
Q 1081 2341 969 1747 
Q 844 1119 1044 756 
Q 1241 397 1706 397 
Q 2166 397 2503 759 
Q 2844 1122 2966 1747 
Q 3075 2319 2881 2700 
Q 2700 3044 2219 3044 
z
M 2309 3503 
L 4219 3500 
L 4106 2925 
L 3463 2925 
Q 3706 2438 3575 1747 
Q 3406 888 2884 400 
Q 2359 -91 1609 -91 
Q 856 -91 525 400 
Q 194 888 363 1747 
Q 528 2609 1050 3097 
Q 1484 3503 2309 3503 
z
" transform="scale(0.015625)"/>
     </defs>
     <use xlink:href="#DejaVuSans-Oblique-357" transform="translate(0 0.265625)"/>
    </g>
   </g>
   <g id="patch_3">
    <path d="M 324 384.214563 
Q 324 209.971803 324 35.729043 
" style="fill: none; stroke: #718096; stroke-linecap: round"/>
    <path d="M 326 380.214563 
L 324 384.214563 
L 322 380.214563 
" style="fill: none; stroke: #718096; stroke-linecap: round"/>
    <path d="M 322 39.729043 
L 324 35.729043 
L 326 39.729043 
" style="fill: none; stroke: #718096; stroke-linecap: round"/>
   </g>
   <g id="text_2">
    <!-- $\tau$ -->
    <g style="fill: #718096" transform="translate(331.601164 37.679003) scale(0.11 -0.11)">
     <defs>
      <path id="DejaVuSans-Oblique-358" d="M 2103 638 
Q 2188 488 2525 488 
L 2800 488 
L 2706 0 
L 2363 0 
Q 1800 0 1600 300 
Q 1403 606 1534 1269 
L 1856 2925 
L 541 2925 
L 653 3500 
L 3881 3500 
L 3769 2925 
L 2444 2925 
L 2113 1234 
Q 2025 781 2103 638 
z
" transform="scale(0.015625)"/>
     </defs>
     <use xlink:href="#DejaVuSans-Oblique-358" transform="translate(0 0.3125)"/>
    </g>
   </g>
   <g id="text_3">
    <!-- $\sigma_3$ -->
    <g style="fill: #c0392b" transform="translate(165.871715 194.76973) scale(0.11 -0.11)">
     <defs>
      <path id="DejaVuSans-16" d="M 2597 2516 
Q 3050 2419 3304 2112 
Q 3559 1806 3559 1356 
Q 3559 666 3084 287 
Q 2609 -91 1734 -91 
Q 1441 -91 1130 -33 
Q 819 25 488 141 
L 488 750 
Q 750 597 1062 519 
Q 1375 441 1716 441 
Q 2309 441 2620 675 
Q 2931 909 2931 1356 
Q 2931 1769 2642 2001 
Q 2353 2234 1838 2234 
L 1294 2234 
L 1294 2753 
L 1863 2753 
Q 2328 2753 2575 2939 
Q 2822 3125 2822 3475 
Q 2822 3834 2567 4026 
Q 2313 4219 1838 4219 
Q 1578 4219 1281 4162 
Q 984 4106 628 3988 
L 628 4550 
Q 988 4650 1302 4700 
Q 1616 4750 1894 4750 
Q 2613 4750 3031 4423 
Q 3450 4097 3450 3541 
Q 3450 3153 3228 2886 
Q 3006 2619 2597 2516 
z
" transform="scale(0.015625)"/>
     </defs>
     <use xlink:href="#DejaVuSans-Oblique-357" transform="translate(0 0.265625)"/>
     <use xlink:href="#DejaVuSans-16" transform="translate(63.378906 -14.734326) scale(0.7)"/>
    </g>
   </g>
   <g id="text_4">
    <!-- $\sigma_2$ -->
    <g style="fill: #c0392b" transform="translate(343.232214 194.76973) scale(0.11 -0.11)">
     <defs>
      <path id="DejaVuSans-15" d="M 1228 531 
L 3431 531 
L 3431 0 
L 469 0 
L 469 531 
Q 828 903 1448 1529 
Q 2069 2156 2228 2338 
Q 2531 2678 2651 2914 
Q 2772 3150 2772 3378 
Q 2772 3750 2511 3984 
Q 2250 4219 1831 4219 
Q 1534 4219 1204 4116 
Q 875 4013 500 3803 
L 500 4441 
Q 881 4594 1212 4672 
Q 1544 4750 1819 4750 
Q 2544 4750 2975 4387 
Q 3406 4025 3406 3419 
Q 3406 3131 3298 2873 
Q 3191 2616 2906 2266 
Q 2828 2175 2409 1742 
Q 1991 1309 1228 531 
z
" transform="scale(0.015625)"/>
     </defs>
     <use xlink:href="#DejaVuSans-Oblique-357" transform="translate(0 0.265625)"/>
     <use xlink:href="#DejaVuSans-15" transform="translate(63.378906 -14.734326) scale(0.7)"/>
    </g>
   </g>
   <g id="text_5">
    <!-- $\sigma_1$ -->
    <g style="fill: #c0392b" transform="translate(469.918285 194.76973) scale(0.11 -0.11)">
     <defs>
      <path id="DejaVuSans-14" d="M 794 531 
L 1825 531 
L 1825 4091 
L 703 3866 
L 703 4441 
L 1819 4666 
L 2450 4666 
L 2450 531 
L 3481 531 
L 3481 0 
L 794 0 
L 794 531 
z
" transform="scale(0.015625)"/>
     </defs>
     <use xlink:href="#DejaVuSans-Oblique-357" transform="translate(0 0.265625)"/>
     <use xlink:href="#DejaVuSans-14" transform="translate(63.378906 -14.734326) scale(0.7)"/>
    </g>
   </g>
   <g id="text_6">
    <!-- $\tau_{\max}=\dfrac{\sigma_1-\sigma_3}{2}$ -->
    <g style="fill: #2b6cb0" transform="translate(329.067443 52.881331) scale(0.1 -0.1)">
     <defs>
      <path id="DejaVuSans-50" d="M 3328 2828 
Q 3544 3216 3844 3400 
Q 4144 3584 4550 3584 
Q 5097 3584 5394 3201 
Q 5691 2819 5691 2113 
L 5691 0 
L 5113 0 
L 5113 2094 
Q 5113 2597 4934 2840 
Q 4756 3084 4391 3084 
Q 3944 3084 3684 2787 
Q 3425 2491 3425 1978 
L 3425 0 
L 2847 0 
L 2847 2094 
Q 2847 2600 2669 2842 
Q 2491 3084 2119 3084 
Q 1678 3084 1418 2786 
Q 1159 2488 1159 1978 
L 1159 0 
L 581 0 
L 581 3500 
L 1159 3500 
L 1159 2956 
Q 1356 3278 1631 3431 
Q 1906 3584 2284 3584 
Q 2666 3584 2933 3390 
Q 3200 3197 3328 2828 
z
" transform="scale(0.015625)"/>
      <path id="DejaVuSans-44" d="M 2194 1759 
Q 1497 1759 1228 1600 
Q 959 1441 959 1056 
Q 959 750 1161 570 
Q 1363 391 1709 391 
Q 2188 391 2477 730 
Q 2766 1069 2766 1631 
L 2766 1759 
L 2194 1759 
z
M 3341 1997 
L 3341 0 
L 2766 0 
L 2766 531 
Q 2569 213 2275 61 
Q 1981 -91 1556 -91 
Q 1019 -91 701 211 
Q 384 513 384 1019 
Q 384 1609 779 1909 
Q 1175 2209 1959 2209 
L 2766 2209 
L 2766 2266 
Q 2766 2663 2505 2880 
Q 2244 3097 1772 3097 
Q 1472 3097 1187 3025 
Q 903 2953 641 2809 
L 641 3341 
Q 956 3463 1253 3523 
Q 1550 3584 1831 3584 
Q 2591 3584 2966 3190 
Q 3341 2797 3341 1997 
z
" transform="scale(0.015625)"/>
      <path id="DejaVuSans-5b" d="M 3513 3500 
L 2247 1797 
L 3578 0 
L 2900 0 
L 1881 1375 
L 863 0 
L 184 0 
L 1544 1831 
L 300 3500 
L 978 3500 
L 1906 2253 
L 2834 3500 
L 3513 3500 
z
" transform="scale(0.015625)"/>
      <path id="DejaVuSans-20" d="M 678 2906 
L 4684 2906 
L 4684 2381 
L 678 2381 
L 678 2906 
z
M 678 1631 
L 4684 1631 
L 4684 1100 
L 678 1100 
L 678 1631 
z
" transform="scale(0.015625)"/>
      <path id="DejaVuSans-c9c" d="M 678 2272 
L 4684 2272 
L 4684 1741 
L 678 1741 
L 678 2272 
z
" transform="scale(0.015625)"/>
     </defs>
     <use xlink:href="#DejaVuSans-Oblique-358" transform="translate(0 0.56543)"/>
     <use xlink:href="#DejaVuSans-50" transform="translate(60.205078 -14.434521) scale(0.7)"/>
     <use xlink:href="#DejaVuSans-44" transform="translate(128.393555 -14.434521) scale(0.7)"/>
     <use xlink:href="#DejaVuSans-5b" transform="translate(171.289062 -14.434521) scale(0.7)"/>
     <use xlink:href="#DejaVuSans-20" transform="translate(246.296614 0.56543)"/>
     <use xlink:href="#DejaVuSans-Oblique-357" transform="translate(355.818098 75.265625)"/>
     <use xlink:href="#DejaVuSans-14" transform="translate(419.197005 60.265674) scale(0.7)"/>
     <use xlink:href="#DejaVuSans-c9c" transform="translate(485.949934 75.265625)"/>
     <use xlink:href="#DejaVuSans-Oblique-357" transform="translate(589.221419 75.265625)"/>
     <use xlink:href="#DejaVuSans-16" transform="translate(652.600325 60.265674) scale(0.7)"/>
     <use xlink:href="#DejaVuSans-15" transform="translate(495.818098 -75.034668)"/>
     <path d="M 355.818098 22.44043 
L 355.818098 28.69043 
L 699.870833 28.69043 
L 699.870833 22.44043 
L 355.818098 22.44043 
z
"/>
    </g>
   </g>
   <g id="text_7">
    <!-- 三向应力圆：三个圆，最大切应力 = 最大圆的半径 = (sigma_1-sigma_3)/2 -->
    <g transform="translate(164.551406 377.197672) scale(0.095 -0.095)">
     <defs>
      <path id="MicrosoftYaHei-406" d="M 575 4691 
L 5813 4691 
L 5813 4153 
L 575 4153 
L 575 4691 
z
M 188 166 
L 6225 166 
L 6225 -359 
L 188 -359 
L 188 166 
z
M 856 2547 
L 5531 2547 
L 5531 2016 
L 856 2016 
L 856 2547 
z
" transform="scale(0.015625)"/>
      <path id="MicrosoftYaHei-567" d="M 1038 -772 
L 550 -772 
L 550 4359 
L 2394 4359 
Q 2550 4822 2694 5328 
L 3231 5178 
Q 3069 4741 2913 4359 
L 5838 4359 
L 5838 -34 
Q 5838 -741 5131 -741 
Q 4738 -741 4181 -728 
Q 4150 -509 4094 -241 
Q 4631 -284 5006 -284 
Q 5350 -284 5350 78 
L 5350 3897 
L 1038 3897 
L 1038 -772 
z
M 1894 2997 
L 4481 2997 
L 4481 803 
L 2369 803 
L 2369 372 
L 1894 372 
L 1894 2997 
z
M 4006 2547 
L 2369 2547 
L 2369 1253 
L 4006 1253 
L 4006 2547 
z
" transform="scale(0.015625)"/>
      <path id="MicrosoftYaHei-681" d="M 2969 5134 
L 3425 5378 
Q 3694 5034 3938 4634 
L 3634 4459 
L 6169 4459 
L 6169 3984 
L 1300 3984 
L 1300 2453 
Q 1300 241 388 -853 
Q 238 -647 25 -422 
Q 775 416 775 2441 
L 775 4459 
L 3419 4459 
Q 3216 4803 2969 5134 
z
M 1263 -9 
L 4153 -9 
Q 4641 1238 5188 3403 
L 5731 3253 
Q 5147 1191 4694 -9 
L 6238 -9 
L 6238 -484 
L 1263 -484 
L 1263 -9 
z
M 1600 3059 
L 2075 3222 
Q 2463 2084 2825 672 
L 2294 509 
Q 2006 1747 1600 3059 
z
M 3106 3372 
L 3588 3509 
Q 3913 2384 4163 991 
L 3613 847 
Q 3431 2084 3106 3372 
z
" transform="scale(0.015625)"/>
      <path id="MicrosoftYaHei-503" d="M 400 3916 
L 2425 3916 
Q 2444 4603 2450 5316 
L 2994 5316 
Q 2981 4653 2963 3916 
L 5831 3916 
Q 5756 1472 5688 459 
Q 5606 -616 4538 -628 
Q 4025 -628 3300 -603 
Q 3275 -359 3206 -9 
L 3225 -9 
Q 4038 -84 4488 -78 
Q 5094 -66 5156 591 
Q 5231 1709 5269 3403 
L 2950 3403 
Q 2894 1775 2431 953 
Q 1938 41 506 -803 
Q 331 -578 131 -328 
Q 1488 434 1913 1209 
Q 2353 1913 2406 3403 
L 400 3403 
L 400 3916 
z
" transform="scale(0.015625)"/>
      <path id="MicrosoftYaHei-5a4" d="M 431 5047 
L 5944 5047 
L 5944 -834 
L 5475 -834 
L 5475 -534 
L 900 -534 
L 900 -834 
L 431 -834 
L 431 5047 
z
M 1763 4222 
L 4638 4222 
L 4638 2834 
L 4213 2834 
L 4213 2978 
L 2188 2978 
L 2188 2834 
L 1763 2834 
L 1763 4222 
z
M 3338 1378 
Q 4269 903 5100 384 
L 4825 28 
Q 4131 509 3213 1022 
Q 2919 347 1375 53 
Q 1294 228 1144 466 
Q 2425 672 2738 1097 
Q 2981 1397 2969 2034 
L 3406 2034 
Q 3406 1666 3338 1378 
z
M 1588 2572 
L 4788 2572 
L 4788 1059 
L 4363 1059 
L 4363 2184 
L 2013 2184 
L 2013 1009 
L 1588 1009 
L 1588 2572 
z
M 4213 3366 
L 4213 3834 
L 2188 3834 
L 2188 3366 
L 4213 3366 
z
M 5475 -97 
L 5475 4609 
L 900 4609 
L 900 -97 
L 5475 -97 
z
" transform="scale(0.015625)"/>
      <path id="MicrosoftYaHei-379" d="M 1606 3531 
Q 1772 3531 1890 3415 
Q 2009 3300 2009 3138 
Q 2009 2975 1893 2858 
Q 1778 2741 1606 2741 
Q 1434 2741 1318 2858 
Q 1203 2975 1203 3138 
Q 1203 3300 1322 3415 
Q 1441 3531 1606 3531 
z
M 1606 716 
Q 1772 716 1890 600 
Q 2009 484 2009 319 
Q 2009 150 1890 36 
Q 1772 -78 1606 -78 
Q 1441 -78 1322 36 
Q 1203 150 1203 319 
Q 1203 484 1322 600 
Q 1441 716 1606 716 
z
" transform="scale(0.015625)"/>
      <path id="MicrosoftYaHei-417" d="M 2913 3028 
L 3481 3028 
L 3481 -841 
L 2913 -841 
L 2913 3028 
z
M 3600 5178 
L 3506 5034 
Q 4519 3366 6319 2647 
Q 6125 2341 5988 2084 
Q 4150 3047 3206 4566 
Q 2281 3122 400 1997 
Q 263 2222 81 2491 
Q 2031 3572 2981 5178 
L 3600 5178 
z
" transform="scale(0.015625)"/>
      <path id="MicrosoftYaHei-36b" d="M 1931 775 
L 1403 -891 
L 966 -891 
L 1350 775 
L 1931 775 
z
" transform="scale(0.015625)"/>
      <path id="MicrosoftYaHei-7c2" d="M 169 -28 
Q 475 3 781 38 
L 781 2416 
L 94 2416 
L 94 2791 
L 6288 2791 
L 6288 2416 
L 3025 2416 
L 3025 331 
Q 3325 375 3625 422 
Q 3619 309 3631 22 
Q 3338 -19 3025 -63 
L 3025 -859 
L 2600 -859 
L 2600 -125 
Q 1525 -278 281 -472 
L 169 -28 
z
M 1038 5053 
L 5363 5053 
L 5363 3047 
L 4925 3047 
L 4925 3191 
L 1475 3191 
L 1475 3047 
L 1038 3047 
L 1038 5053 
z
M 3338 1609 
L 3338 1972 
L 5819 1972 
L 5819 1609 
Q 5500 844 4981 278 
Q 5516 -113 6306 -316 
Q 6144 -553 6025 -753 
Q 5219 -488 4666 -34 
Q 4128 -516 3413 -822 
Q 3306 -634 3125 -428 
Q 3834 -156 4347 266 
Q 3825 825 3603 1609 
L 3338 1609 
z
M 1475 3553 
L 4925 3553 
L 4925 3953 
L 1475 3953 
L 1475 3553 
z
M 4925 4691 
L 1475 4691 
L 1475 4291 
L 4925 4291 
L 4925 4691 
z
M 5344 1609 
L 4025 1609 
Q 4222 994 4659 556 
Q 5094 1013 5344 1609 
z
M 2600 269 
L 2600 691 
L 1206 691 
L 1206 88 
Q 1913 172 2600 269 
z
M 1206 1916 
L 2600 1916 
L 2600 2416 
L 1206 2416 
L 1206 1916 
z
M 1206 1053 
L 2600 1053 
L 2600 1553 
L 1206 1553 
L 1206 1053 
z
" transform="scale(0.015625)"/>
      <path id="MicrosoftYaHei-5dd" d="M 88 -341 
Q 2666 806 2869 3103 
L 200 3103 
L 200 3591 
L 2891 3591 
Q 2906 4431 2906 5284 
L 3450 5284 
Q 3450 4444 3434 3591 
L 6206 3591 
L 6206 3103 
L 3425 3103 
Q 3869 606 6338 -191 
Q 6019 -497 5863 -697 
Q 3828 122 3203 2219 
Q 2716 322 475 -822 
Q 350 -653 88 -341 
z
" transform="scale(0.015625)"/>
      <path id="MicrosoftYaHei-4e4" d="M 2356 4897 
L 5981 4897 
Q 5875 1528 5806 384 
Q 5731 -659 4831 -653 
Q 4325 -653 3781 -622 
Q 3744 -322 3675 -34 
Q 4231 -128 4744 -128 
Q 5250 -128 5288 459 
Q 5394 1672 5450 4428 
L 3972 4428 
Q 3925 3144 3869 2297 
Q 3763 203 2225 -859 
Q 2069 -678 1831 -453 
Q 3300 497 3381 2353 
Q 3444 3191 3469 4428 
L 2356 4428 
L 2356 4897 
z
M 2694 1722 
Q 2713 1328 2744 1141 
Q 2019 684 1356 228 
Q 1181 103 1044 -34 
L 706 434 
Q 919 634 919 1003 
L 919 3013 
L 144 2928 
L 106 3409 
L 919 3500 
L 919 5353 
L 1406 5353 
L 1406 3553 
L 2681 3697 
L 2719 3216 
L 1406 3069 
L 1406 916 
Q 2056 1309 2694 1722 
z
" transform="scale(0.015625)"/>
      <path id="MicrosoftYaHei-3" transform="scale(0.015625)"/>
      <path id="MicrosoftYaHei-23" d="M 3972 2497 
L 788 2497 
L 788 2969 
L 3972 2969 
L 3972 2497 
z
M 3972 1053 
L 788 1053 
L 788 1525 
L 3972 1525 
L 3972 1053 
z
" transform="scale(0.015625)"/>
      <path id="MicrosoftYaHei-919" d="M 356 4284 
L 988 4284 
Q 1219 4853 1369 5322 
L 1894 5172 
Q 1697 4694 1513 4284 
L 2763 4284 
L 2763 -691 
L 2263 -691 
L 2263 -203 
L 856 -203 
L 856 -734 
L 356 -734 
L 356 4284 
z
M 2856 3003 
Q 3444 3934 3850 5322 
L 4375 5191 
Q 4216 4719 4050 4303 
L 6063 4303 
Q 5988 1091 5938 259 
Q 5894 -722 4906 -722 
Q 4338 -722 3750 -684 
Q 3713 -372 3650 -128 
L 3669 -128 
Q 4294 -216 4813 -216 
Q 5381 -216 5425 384 
Q 5494 1316 5525 3834 
L 3850 3834 
Q 3578 3231 3288 2772 
Q 3119 2891 2856 3003 
z
M 856 266 
L 2263 266 
L 2263 1847 
L 856 1847 
L 856 266 
z
M 2263 3816 
L 856 3816 
L 856 2297 
L 2263 2297 
L 2263 3816 
z
M 3406 2578 
L 3788 2859 
Q 4481 2041 4894 1441 
L 4431 1116 
Q 3988 1841 3406 2578 
z
" transform="scale(0.015625)"/>
      <path id="MicrosoftYaHei-521" d="M 125 1484 
L 2931 1484 
L 2931 2572 
L 381 2572 
L 381 3047 
L 2931 3047 
L 2931 5316 
L 3463 5316 
L 3463 3047 
L 6025 3047 
L 6025 2572 
L 3463 2572 
L 3463 1484 
L 6275 1484 
L 6275 1009 
L 3463 1009 
L 3463 -822 
L 2931 -822 
L 2931 1009 
L 125 1009 
L 125 1484 
z
M 4200 3709 
Q 4750 4222 5363 4959 
L 5800 4609 
Q 5194 3928 4575 3359 
L 4200 3709 
z
M 600 4641 
L 969 4947 
Q 1550 4397 2156 3728 
L 1725 3359 
Q 1081 4159 600 4641 
z
" transform="scale(0.015625)"/>
      <path id="MicrosoftYaHei-6ac" d="M 2388 4466 
L 2388 4891 
L 5738 4891 
L 5738 4459 
Q 5216 3866 4619 3391 
Q 5559 2888 6338 2428 
L 6038 1972 
Q 5256 2494 4216 3091 
Q 3253 2422 2106 2041 
Q 2000 2247 1850 2459 
Q 3894 3153 5025 4466 
L 2388 4466 
z
M 1931 -66 
L 3881 -66 
L 3881 1403 
L 2288 1403 
L 2288 1828 
L 5950 1828 
L 5950 1403 
L 4344 1403 
L 4344 -66 
L 6300 -66 
L 6300 -491 
L 1931 -491 
L 1931 -66 
z
M 38 1572 
Q 975 2353 1750 3809 
L 2175 3541 
Q 1844 2953 1475 2444 
L 1475 -816 
L 994 -816 
L 994 1831 
Q 638 1419 250 1066 
Q 156 1328 38 1572 
z
M 106 3616 
Q 1038 4359 1638 5391 
L 2063 5116 
Q 1356 3997 344 3134 
Q 238 3359 106 3616 
z
" transform="scale(0.015625)"/>
      <path id="MicrosoftYaHei-e" d="M 1531 -1100 
Q 478 100 478 1847 
Q 478 3594 1531 4841 
L 2072 4841 
Q 1016 3544 1016 1853 
Q 1016 166 2066 -1100 
L 1531 -1100 
z
" transform="scale(0.015625)"/>
      <path id="MicrosoftYaHei-59" d="M 353 747 
Q 816 413 1350 413 
Q 2066 413 2066 881 
Q 2066 1081 1909 1211 
Q 1753 1341 1275 1519 
Q 700 1750 528 1976 
Q 356 2203 356 2525 
Q 356 2984 745 3261 
Q 1134 3538 1703 3538 
Q 2144 3538 2522 3384 
L 2522 2794 
Q 2134 3044 1644 3044 
Q 1350 3044 1165 2916 
Q 981 2788 981 2578 
Q 981 2372 1114 2256 
Q 1247 2141 1703 1959 
Q 2281 1744 2484 1512 
Q 2688 1281 2688 941 
Q 2688 466 2298 192 
Q 1909 -81 1291 -81 
Q 753 -81 353 122 
L 353 747 
z
" transform="scale(0.015625)"/>
      <path id="MicrosoftYaHei-4f" d="M 472 4675 
Q 472 4838 583 4948 
Q 694 5059 856 5059 
Q 1022 5059 1136 4950 
Q 1250 4841 1250 4675 
Q 1250 4513 1136 4405 
Q 1022 4297 856 4297 
Q 691 4297 581 4405 
Q 472 4513 472 4675 
z
M 544 0 
L 544 3456 
L 1156 3456 
L 1156 0 
L 544 0 
z
" transform="scale(0.015625)"/>
      <path id="MicrosoftYaHei-4d" d="M 3547 291 
Q 3547 -1628 1684 -1628 
Q 1041 -1628 566 -1388 
L 566 -797 
Q 1144 -1119 1675 -1119 
Q 2934 -1119 2934 206 
L 2934 572 
L 2922 572 
Q 2528 -81 1747 -81 
Q 1097 -81 706 384 
Q 316 850 316 1619 
Q 316 2503 747 3020 
Q 1178 3538 1897 3538 
Q 2588 3538 2922 2988 
L 2934 2988 
L 2934 3456 
L 3547 3456 
L 3547 291 
z
M 2934 2056 
Q 2938 2456 2666 2743 
Q 2394 3031 1997 3031 
Q 1497 3031 1219 2664 
Q 941 2297 941 1656 
Q 941 1106 1209 765 
Q 1478 425 1922 425 
Q 2369 425 2653 750 
Q 2938 1075 2934 1575 
L 2934 2056 
z
" transform="scale(0.015625)"/>
      <path id="MicrosoftYaHei-53" d="M 5522 0 
L 4909 0 
L 4909 1984 
Q 4909 2547 4734 2789 
Q 4559 3031 4159 3031 
Q 3822 3031 3581 2715 
Q 3341 2400 3341 1969 
L 3341 0 
L 2728 0 
L 2728 2047 
Q 2728 3031 1969 3031 
Q 1619 3031 1389 2731 
Q 1159 2431 1159 1966 
L 1159 0 
L 547 0 
L 547 3456 
L 1159 3456 
L 1159 2909 
L 1172 2909 
Q 1541 3538 2250 3538 
Q 2597 3538 2862 3347 
Q 3128 3156 3231 2831 
Q 3616 3538 4381 3538 
Q 5522 3538 5522 2131 
L 5522 0 
z
" transform="scale(0.015625)"/>
      <path id="MicrosoftYaHei-47" d="M 628 3216 
Q 1144 3538 1819 3538 
Q 3069 3538 3069 2225 
L 3069 0 
L 2463 0 
L 2463 534 
L 2447 534 
Q 2088 -81 1388 -81 
Q 884 -81 587 191 
Q 291 463 291 925 
Q 291 1894 1438 2053 
L 2463 2197 
Q 2463 3044 1763 3044 
Q 1141 3044 628 2625 
L 628 3216 
z
M 1653 1625 
Q 1228 1569 1067 1412 
Q 906 1256 906 975 
Q 906 728 1081 572 
Q 1256 416 1544 416 
Q 1944 416 2203 697 
Q 2463 978 2463 1403 
L 2463 1734 
L 1653 1625 
z
" transform="scale(0.015625)"/>
      <path id="MicrosoftYaHei-45" d="M 2869 -1634 
L 0 -1634 
L 0 -1231 
L 2869 -1231 
L 2869 -1634 
z
" transform="scale(0.015625)"/>
      <path id="MicrosoftYaHei-17" d="M 1781 0 
L 1781 4141 
Q 1638 3997 1295 3819 
Q 953 3641 663 3569 
L 663 4169 
Q 1047 4275 1484 4508 
Q 1922 4741 2156 4947 
L 2388 4947 
L 2388 0 
L 1781 0 
z
" transform="scale(0.015625)"/>
      <path id="MicrosoftYaHei-13" d="M 2328 1681 
L 488 1681 
L 488 2153 
L 2328 2153 
L 2328 1681 
z
" transform="scale(0.015625)"/>
      <path id="MicrosoftYaHei-19" d="M 447 809 
Q 944 425 1569 425 
Q 2069 425 2361 670 
Q 2653 916 2653 1328 
Q 2653 2247 1338 2247 
L 934 2247 
L 934 2753 
L 1319 2753 
Q 2484 2753 2484 3616 
Q 2484 4413 1594 4413 
Q 1084 4413 634 4069 
L 634 4647 
Q 1109 4922 1744 4922 
Q 2363 4922 2738 4598 
Q 3113 4275 3113 3759 
Q 3113 2809 2144 2538 
L 2144 2525 
Q 2669 2469 2973 2155 
Q 3278 1841 3278 1372 
Q 3278 719 2808 319 
Q 2338 -81 1556 -81 
Q 869 -81 447 175 
L 447 809 
z
" transform="scale(0.015625)"/>
      <path id="MicrosoftYaHei-f" d="M 78 -1100 
Q 1131 163 1131 1853 
Q 1131 3547 72 4841 
L 616 4841 
Q 1672 3603 1672 1847 
Q 1672 91 616 -1100 
L 78 -1100 
z
" transform="scale(0.015625)"/>
      <path id="MicrosoftYaHei-15" d="M 2791 4841 
L 469 -803 
L -103 -803 
L 2219 4841 
L 2791 4841 
z
" transform="scale(0.015625)"/>
      <path id="MicrosoftYaHei-18" d="M 2666 3572 
Q 2666 3963 2419 4186 
Q 2172 4409 1747 4409 
Q 1447 4409 1140 4256 
Q 834 4103 569 3819 
L 569 4413 
Q 806 4659 1107 4790 
Q 1409 4922 1816 4922 
Q 2472 4922 2872 4570 
Q 3272 4219 3272 3619 
Q 3272 3084 3026 2693 
Q 2781 2303 2188 1894 
Q 1581 1475 1376 1294 
Q 1172 1113 1090 947 
Q 1009 781 1009 544 
L 3416 544 
L 3416 0 
L 372 0 
L 372 241 
Q 372 659 486 951 
Q 600 1244 862 1520 
Q 1125 1797 1681 2184 
Q 2250 2584 2458 2886 
Q 2666 3188 2666 3572 
z
" transform="scale(0.015625)"/>
     </defs>
     <use xlink:href="#MicrosoftYaHei-406"/>
     <use xlink:href="#MicrosoftYaHei-567" transform="translate(100 0)"/>
     <use xlink:href="#MicrosoftYaHei-681" transform="translate(200 0)"/>
     <use xlink:href="#MicrosoftYaHei-503" transform="translate(300 0)"/>
     <use xlink:href="#MicrosoftYaHei-5a4" transform="translate(400 0)"/>
     <use xlink:href="#MicrosoftYaHei-379" transform="translate(500 0)"/>
     <use xlink:href="#MicrosoftYaHei-406" transform="translate(600 0)"/>
     <use xlink:href="#MicrosoftYaHei-417" transform="translate(700 0)"/>
     <use xlink:href="#MicrosoftYaHei-5a4" transform="translate(800 0)"/>
     <use xlink:href="#MicrosoftYaHei-36b" transform="translate(900 0)"/>
     <use xlink:href="#MicrosoftYaHei-7c2" transform="translate(1000 0)"/>
     <use xlink:href="#MicrosoftYaHei-5dd" transform="translate(1100 0)"/>
     <use xlink:href="#MicrosoftYaHei-4e4" transform="translate(1200 0)"/>
     <use xlink:href="#MicrosoftYaHei-681" transform="translate(1300 0)"/>
     <use xlink:href="#MicrosoftYaHei-503" transform="translate(1400 0)"/>
     <use xlink:href="#MicrosoftYaHei-3" transform="translate(1500 0)"/>
     <use xlink:href="#MicrosoftYaHei-23" transform="translate(1529.59375 0)"/>
     <use xlink:href="#MicrosoftYaHei-3" transform="translate(1603.765625 0)"/>
     <use xlink:href="#MicrosoftYaHei-7c2" transform="translate(1633.359375 0)"/>
     <use xlink:href="#MicrosoftYaHei-5dd" transform="translate(1733.359375 0)"/>
     <use xlink:href="#MicrosoftYaHei-5a4" transform="translate(1833.359375 0)"/>
     <use xlink:href="#MicrosoftYaHei-919" transform="translate(1933.359375 0)"/>
     <use xlink:href="#MicrosoftYaHei-521" transform="translate(2033.359375 0)"/>
     <use xlink:href="#MicrosoftYaHei-6ac" transform="translate(2133.359375 0)"/>
     <use xlink:href="#MicrosoftYaHei-3" transform="translate(2233.359375 0)"/>
     <use xlink:href="#MicrosoftYaHei-23" transform="translate(2262.953125 0)"/>
     <use xlink:href="#MicrosoftYaHei-3" transform="translate(2337.125 0)"/>
     <use xlink:href="#MicrosoftYaHei-e" transform="translate(2366.71875 0)"/>
     <use xlink:href="#MicrosoftYaHei-59" transform="translate(2400.125 0)"/>
     <use xlink:href="#MicrosoftYaHei-4f" transform="translate(2446.421875 0)"/>
     <use xlink:href="#MicrosoftYaHei-4d" transform="translate(2473.03125 0)"/>
     <use xlink:href="#MicrosoftYaHei-53" transform="translate(2537 0)"/>
     <use xlink:href="#MicrosoftYaHei-47" transform="translate(2630.703125 0)"/>
     <use xlink:href="#MicrosoftYaHei-45" transform="translate(2685.984375 0)"/>
     <use xlink:href="#MicrosoftYaHei-17" transform="translate(2730.8125 0)"/>
     <use xlink:href="#MicrosoftYaHei-13" transform="translate(2789.453125 0)"/>
     <use xlink:href="#MicrosoftYaHei-59" transform="translate(2832.71875 0)"/>
     <use xlink:href="#MicrosoftYaHei-4f" transform="translate(2879.015625 0)"/>
     <use xlink:href="#MicrosoftYaHei-4d" transform="translate(2905.625 0)"/>
     <use xlink:href="#MicrosoftYaHei-53" transform="translate(2969.59375 0)"/>
     <use xlink:href="#MicrosoftYaHei-47" transform="translate(3063.296875 0)"/>
     <use xlink:href="#MicrosoftYaHei-45" transform="translate(3118.578125 0)"/>
     <use xlink:href="#MicrosoftYaHei-19" transform="translate(3163.40625 0)"/>
     <use xlink:href="#MicrosoftYaHei-f" transform="translate(3222.046875 0)"/>
     <use xlink:href="#MicrosoftYaHei-15" transform="translate(3255.453125 0)"/>
     <use xlink:href="#MicrosoftYaHei-18" transform="translate(3298.171875 0)"/>
    </g>
   </g>
   <g id="text_8">
    <!-- 三向应力状态下的应力圆 -->
    <g transform="translate(269 17.409232) scale(0.1 -0.1)">
     <defs>
      <path id="MicrosoftYaHei-Bold-405" d="M 575 4803 
L 5813 4803 
L 5813 3878 
L 575 3878 
L 575 4803 
z
M 856 2691 
L 5531 2691 
L 5531 1791 
L 856 1791 
L 856 2691 
z
M 188 466 
L 6225 466 
L 6225 -459 
L 188 -459 
L 188 466 
z
" transform="scale(0.015625)"/>
      <path id="MicrosoftYaHei-Bold-566" d="M 400 4466 
L 2253 4466 
Q 2388 4928 2475 5347 
L 3438 5203 
L 3197 4466 
L 6006 4466 
L 6006 409 
Q 6006 -166 5743 -464 
Q 5481 -763 4928 -780 
Q 4375 -797 3625 -797 
Q 3538 -366 3394 116 
Q 3856 84 4209 84 
Q 4622 84 4781 131 
Q 4941 178 5033 315 
Q 5125 453 5125 672 
L 5125 3603 
L 1288 3603 
L 1288 -766 
L 400 -766 
L 400 4466 
z
M 4613 3091 
L 4613 666 
L 2650 666 
L 2650 291 
L 1800 291 
L 1800 3091 
L 4613 3091 
z
M 2650 2291 
L 2650 1466 
L 3763 1466 
L 3763 2291 
L 2650 2291 
z
" transform="scale(0.015625)"/>
      <path id="MicrosoftYaHei-Bold-680" d="M 1438 2491 
Q 1438 119 794 -866 
Q 506 -597 88 -266 
Q 619 622 613 2603 
L 613 4566 
L 3009 4566 
Q 2894 4853 2781 5116 
L 3788 5353 
Q 3928 5016 4103 4566 
L 6225 4566 
L 6225 3797 
L 1438 3797 
L 1438 2491 
z
M 3013 3309 
L 3794 3541 
Q 4125 2678 4513 1316 
L 3669 1084 
Q 3300 2416 3013 3309 
z
M 1325 316 
L 4300 316 
Q 4681 1541 5200 3453 
L 6069 3228 
Q 5744 2006 5184 316 
L 6250 316 
L 6250 -553 
L 1325 -553 
L 1325 316 
z
M 1475 2984 
L 2225 3303 
Q 2775 2103 3244 828 
L 2406 516 
Q 2006 1684 1475 2984 
z
" transform="scale(0.015625)"/>
      <path id="MicrosoftYaHei-Bold-502" d="M 2094 5309 
L 3063 5309 
L 3022 4066 
L 5988 4066 
L 5931 2203 
Q 5897 1225 5859 593 
Q 5822 -38 5489 -373 
Q 5156 -709 4611 -721 
Q 4066 -734 3225 -728 
Q 3138 -184 3038 247 
Q 3531 197 4188 197 
Q 4503 197 4665 320 
Q 4828 444 4876 623 
Q 4925 803 4964 1515 
Q 5003 2228 5025 3241 
L 2978 3241 
Q 2919 603 769 -891 
Q 444 -491 38 -84 
Q 1963 1059 2031 3241 
L 381 3241 
L 381 4066 
L 2075 4066 
Q 2097 4644 2094 5309 
z
" transform="scale(0.015625)"/>
      <path id="MicrosoftYaHei-Bold-8a9" d="M 2300 5316 
L 2300 -34 
Q 3438 963 3656 2728 
L 2513 2728 
L 2513 3547 
L 3709 3547 
Q 3738 4566 3731 5316 
L 4588 5316 
Q 4588 4419 4556 3547 
L 6163 3547 
L 6163 2728 
L 4706 2728 
Q 5091 722 6325 -41 
Q 6019 -347 5694 -828 
Q 4669 -81 4266 1772 
Q 3928 100 2863 -872 
Q 2603 -469 2300 -119 
L 2300 -847 
L 1463 -847 
L 1463 1206 
Q 934 813 369 334 
L 94 1328 
Q 709 1706 1463 2288 
L 1463 5316 
L 2300 5316 
z
M 5363 5234 
Q 5719 4866 6181 4284 
L 5531 3778 
Q 5113 4391 4769 4809 
L 5363 5234 
z
M 850 4516 
Q 1169 3766 1444 2878 
L 713 2616 
Q 488 3459 181 4284 
L 850 4516 
z
" transform="scale(0.015625)"/>
      <path id="MicrosoftYaHei-Bold-34c6" d="M 300 4628 
L 2656 4628 
Q 2719 4953 2700 5334 
L 3625 5334 
Q 3613 4947 3584 4628 
L 6100 4628 
L 6100 3878 
L 3981 3878 
Q 4788 3000 6313 2703 
Q 6063 2228 5869 1784 
Q 4159 2303 3206 3700 
Q 2500 2331 588 1703 
Q 356 2197 88 2616 
Q 1869 3028 2369 3878 
L 300 3878 
L 300 4628 
z
M 2919 3022 
Q 3356 2753 3950 2347 
L 3388 1784 
Q 2863 2222 2406 2528 
L 2919 3022 
z
M 2975 1941 
Q 3619 1559 4163 1166 
L 3644 566 
Q 3119 997 2506 1372 
L 2975 1941 
z
M 5494 1709 
Q 5969 997 6331 278 
L 5588 -128 
Q 5244 603 4775 1353 
L 5494 1709 
z
M 4350 872 
Q 4813 647 5213 497 
Q 5022 -278 4744 -509 
Q 4466 -741 3913 -741 
L 2500 -741 
Q 1563 -741 1563 184 
L 1563 1491 
L 2388 1491 
L 2388 391 
Q 2388 9 2775 9 
L 3713 9 
Q 4019 9 4147 143 
Q 4275 278 4350 872 
z
M 663 1466 
L 1438 1203 
Q 1119 253 863 -353 
L 81 -53 
Q 413 659 663 1466 
z
" transform="scale(0.015625)"/>
      <path id="MicrosoftYaHei-Bold-407" d="M 4038 3372 
Q 5050 2647 6069 1866 
L 5425 1078 
Q 4363 1997 3488 2647 
L 3488 -822 
L 2475 -822 
L 2475 4066 
L 175 4066 
L 175 4947 
L 6213 4947 
L 6213 4066 
L 3488 4066 
L 3488 2822 
L 4038 3372 
z
" transform="scale(0.015625)"/>
      <path id="MicrosoftYaHei-Bold-8e9" d="M 1250 5303 
L 2181 5159 
L 1900 4309 
L 2963 4309 
L 2963 3091 
Q 3466 3934 3925 5316 
L 4788 5091 
Q 4650 4675 4494 4278 
L 6106 4278 
L 6034 681 
Q 6019 100 5937 -133 
Q 5856 -366 5684 -512 
Q 5513 -659 5205 -712 
Q 4897 -766 3863 -766 
Q 3769 -216 3625 178 
Q 4088 141 4609 141 
Q 4759 141 4868 175 
Q 4978 209 5048 279 
Q 5119 350 5144 437 
Q 5169 525 5184 1206 
L 5213 2484 
Q 5225 3081 5225 3453 
L 4138 3453 
Q 3931 3016 3700 2603 
Q 3403 2797 2963 2988 
L 2963 -734 
L 2094 -734 
L 2094 -284 
L 1206 -284 
L 1206 -772 
L 338 -772 
L 338 4309 
L 997 4309 
Q 1178 4922 1250 5303 
z
M 2094 3491 
L 1206 3491 
L 1206 2422 
L 2094 2422 
L 2094 3491 
z
M 1206 534 
L 2094 534 
L 2094 1603 
L 1206 1603 
L 1206 534 
z
M 3944 2703 
Q 4394 2166 4913 1397 
L 4125 872 
Q 3650 1653 3219 2203 
L 3944 2703 
z
" transform="scale(0.015625)"/>
      <path id="MicrosoftYaHei-Bold-5a3" d="M 369 -841 
L 369 5072 
L 6019 5072 
L 6019 -834 
L 5225 -834 
L 5225 -591 
L 1163 -591 
L 1163 -841 
L 369 -841 
z
M 5225 4403 
L 1163 4403 
L 1163 78 
L 5225 78 
L 5225 4403 
z
M 1763 4166 
L 4625 4166 
L 4625 2797 
L 1763 2797 
L 1763 4166 
z
M 3988 3616 
L 2400 3616 
L 2400 3322 
L 3988 3322 
L 3988 3616 
z
M 1538 1078 
L 1538 2547 
L 4850 2547 
L 4850 1078 
L 4175 1078 
L 4175 1978 
L 2213 1978 
L 2213 1078 
L 1538 1078 
z
M 2938 1778 
L 3650 1778 
Q 3625 1488 3525 1253 
Q 4328 991 5169 697 
L 4813 109 
L 3191 781 
Q 2663 328 1613 141 
Q 1488 441 1300 778 
Q 2309 925 2604 1156 
Q 2900 1388 2938 1778 
z
" transform="scale(0.015625)"/>
     </defs>
     <use xlink:href="#MicrosoftYaHei-Bold-405"/>
     <use xlink:href="#MicrosoftYaHei-Bold-566" transform="translate(100 0)"/>
     <use xlink:href="#MicrosoftYaHei-Bold-680" transform="translate(200 0)"/>
     <use xlink:href="#MicrosoftYaHei-Bold-502" transform="translate(300 0)"/>
     <use xlink:href="#MicrosoftYaHei-Bold-8a9" transform="translate(400 0)"/>
     <use xlink:href="#MicrosoftYaHei-Bold-34c6" transform="translate(500 0)"/>
     <use xlink:href="#MicrosoftYaHei-Bold-407" transform="translate(600 0)"/>
     <use xlink:href="#MicrosoftYaHei-Bold-8e9" transform="translate(700 0)"/>
     <use xlink:href="#MicrosoftYaHei-Bold-680" transform="translate(800 0)"/>
     <use xlink:href="#MicrosoftYaHei-Bold-502" transform="translate(900 0)"/>
     <use xlink:href="#MicrosoftYaHei-Bold-5a3" transform="translate(1000 0)"/>
    </g>
   </g>
  </g>
 </g>
 <defs>
  <clipPath id="p04f4d61935">
   <rect x="108.63368" y="27.544117" width="430.732639" height="364.855883"/>
  </clipPath>
 </defs>
</svg>
